Coordinates
version=1
nRows=5
nColumns=63
inDegrees=yes

Units are S.I. units (second, meters, Newtons, ...)
If the header above contains a line with 'inDegrees', this indicates whether rotational values are in degrees (yes) or radians (no).

endheader
time	pelvis_tilt	pelvis_list	pelvis_rotation	pelvis_tx	pelvis_ty	pelvis_tz	hip_flexion_r	hip_adduction_r	hip_rotation_r	knee_angle_r	knee_angle_r_beta	ankle_angle_r	subtalar_angle_r	mtp_angle_r	hip_flexion_l	hip_adduction_l	hip_rotation_l	knee_angle_l	knee_angle_l_beta	ankle_angle_l	subtalar_angle_l	mtp_angle_l	L5_S1_Flex_Ext	L5_S1_Lat_Bending	L5_S1_axial_rotation	L4_L5_Flex_Ext	L4_L5_Lat_Bending	L4_L5_axial_rotation	L3_L4_Flex_Ext	L3_L4_Lat_Bending	L3_L4_axial_rotation	L2_L3_Flex_Ext	L2_L3_Lat_Bending	L2_L3_axial_rotation	L1_L2_Flex_Ext	L1_L2_Lat_Bending	L1_L2_axial_rotation	L1_T12_Flex_Ext	L1_T12_Lat_Bending	L1_T12_axial_rotation	Abs_r3	Abs_r2	Abs_r1	Abs_t1	Abs_t2	neck_flexion	neck_bending	neck_rotation	arm_flex_r	arm_add_r	arm_rot_r	elbow_flex_r	pro_sup_r	wrist_flex_r	wrist_dev_r	arm_flex_l	arm_add_l	arm_rot_l	elbow_flex_l	pro_sup_l	wrist_flex_l	wrist_dev_l
     17.09200000	    -42.55802564	     -0.09833376	     -6.08163924	     -0.25007355	      1.04044548	      0.26176079	    109.49176128	     -9.02472220	     -9.04056981	     92.66111374	      1.61724152	     16.51756179	     -1.17345682	      0.00000000	     81.01091172	    -13.21870641	     -4.83692797	     74.66147509	      1.30308856	      0.98902063	     -0.50736213	      0.00000000	     -0.03744148	      0.08295662	      0.74508284	     -0.06953256	      0.11033231	      0.79165052	     -0.06151260	      0.20170073	      0.79165052	     -0.04279186	      0.20170073	      0.65194749	     -0.03476815	      0.16916514	      0.60537981	     -0.02139406	      0.12849981	      0.55881213	     -0.26744072	      0.93842189	      4.14392724	      0.00000000	      0.00000000	      0.00000000	      0.00000000	      0.00000000	     73.31121083	    -12.01937379	     32.62883317	     32.45391518	     41.83965582	      0.00000000	      5.00000014	     76.03669702	    -12.96824897	     29.57721857	     30.59302924	     48.13433260	      0.00000000	      5.00000014
     17.10000000	    -42.53933649	     -0.12901775	     -5.55262353	     -0.24991734	      1.04034340	      0.26096126	    108.51189512	     -9.46679117	     -9.24036621	     90.70700349	      1.58313587	     16.51923765	     -0.84042399	      0.00000000	     81.80498204	    -12.75653782	     -4.38162910	     76.54274634	      1.33592294	      0.98561379	     -0.55592845	      0.00000000	     -0.03757700	      0.08306312	      0.65629978	     -0.06978426	      0.11047395	      0.69731852	     -0.06173526	      0.20195968	      0.69731852	     -0.04294676	      0.20195968	      0.57426231	     -0.03489401	      0.16938232	      0.53324357	     -0.02147150	      0.12866478	      0.49222484	     -0.26840879	      0.93962666	      3.65014251	      0.00000000	      0.00000000	      0.00000000	      0.00000000	      0.00000000	     73.26462549	    -12.02905270	     32.54914766	     32.46159932	     41.81825401	      0.00000000	      5.00000014	     76.05850955	    -12.86556200	     29.57123488	     30.51773771	     48.13952495	      0.00000000	      5.00000014
     17.10800000	    -42.55715700	     -0.33458654	     -5.00958818	     -0.24981868	      1.04032521	      0.25995724	    107.39052689	    -10.04942744	     -9.75834950	     88.64687637	      1.54717986	     16.66502301	     -0.21703067	      0.00000000	     82.71766329	    -12.32059060	     -3.79124879	     78.43438314	      1.36893823	      0.81113344	     -0.66934525	      0.00000000	     -0.03581714	      0.10732347	      0.57178537	     -0.06651601	      0.14274021	      0.60752195	     -0.05884398	      0.26094628	      0.60752195	     -0.04093541	      0.26094628	      0.50031220	     -0.03325979	      0.21885402	      0.46457561	     -0.02046591	      0.16624405	      0.42883903	     -0.25583823	      1.21406454	      3.18009869	      0.00000000	      0.00000000	      0.00000000	      0.00000000	      0.00000000	     73.25084466	    -12.07814622	     32.44282992	     32.44129580	     41.78898997	      0.00000000	      5.00000014	     76.05683875	    -12.68238028	     29.62483859	     30.45280463	     48.15808573	      0.00000000	      5.00000014
     17.11700000	    -42.52487807	     -0.05907923	     -4.40437825	     -0.24975291	      1.04021977	      0.25910365	    106.46473009	    -10.51210340	     -9.68923309	     86.70793566	      1.51333896	     16.33965298	      0.02962860	      0.00000000	     83.44601682	    -11.75020118	     -3.77937724	     80.29392754	      1.40139340	      0.92332784	     -0.74398763	      0.00000000	     -0.03828807	      0.06817979	      0.47448567	     -0.07110477	      0.09067912	      0.50414103	     -0.06290347	      0.16577234	      0.50414103	     -0.04375943	      0.16577234	      0.41517497	     -0.03555430	      0.13903222	      0.38551961	     -0.02187780	      0.10561049	      0.35586426	     -0.27348785	      0.77126340	      2.63894698	      0.00000000	      0.00000000	      0.00000000	      0.00000000	      0.00000000	     73.20856122	    -12.12816148	     32.41281725	     32.45543470	     41.78233256	      0.00000000	      5.00000014	     76.16647780	    -12.64630351	     29.62995514	     30.45720583	     48.16140740	      0.00000000	      5.00000014
     17.12500000	    -42.54132140	     -0.60111841	     -3.95134410	     -0.24954820	      1.04021331	      0.25796758	    105.06711871	    -11.00694302	    -10.51093888	     84.55387021	      1.47574343	     16.71288202	      0.89878264	      0.00000000	     84.60664991	    -11.45316933	     -2.81451408	     82.43169755	      1.43870453	      0.15151546	     -0.93784570	      0.00000000	     -0.03664257	      0.14008683	      0.41046014	     -0.06804892	      0.18631548	      0.43611390	     -0.06020008	      0.34060711	      0.43611390	     -0.04187880	      0.34060711	      0.35915262	     -0.03402629	      0.28566506	      0.33349886	     -0.02093757	      0.21699449	      0.30784510	     -0.26173423	      1.58469020	      2.28285616	      0.00000000	      0.00000000	      0.00000000	      0.00000000	      0.00000000	     73.25091216	    -12.23678602	     32.22726476	     32.40541885	     41.74225795	      0.00000000	      5.00000014	     76.08556223	    -12.45862121	     29.85238577	     30.30945003	     48.20964909	      0.00000000	      5.00000014
